<svg width="297.6" height="297.6" xmlns="http://www.w3.org/2000/svg">
 <style type="text/css">.st0{fill:#2F318F;}
	.st1{fill:#ED764D;}</style>

 <g>
  <title>background</title>
  <rect fill="none" id="canvas_background" height="299.6" width="299.6" y="-1" x="-1"/>
 </g>
 <g>
  <title>Layer 1</title>
  <path fill="#000000" id="svg_2" d="m51.333332,260.766663l24.399998,-11.499969c5.799995,-2.699997 9.299995,-7 10.799995,-13.199997c0.400002,-1.699997 1.200005,-6.699997 1.200005,-20.800003l0,-124.500038c0,-14.099998 -0.700005,-19.099998 -1.099998,-20.799995c-1.5,-6.199993 -5.100006,-10.499992 -10.800003,-13.199989l-24.599995,-11.500004l120.300007,0l-24.5,11.500004c-5.800003,2.699997 -9.300003,6.999996 -10.800003,13.199989c-0.399994,1.699997 -1.099991,6.699997 -1.099991,20.799995l0,133.400032c14,1.699997 27.599991,2.5 40.599991,2.5c11.800003,0 22.100006,-1.300003 30.600006,-3.800003c8.5,-2.599991 18.399994,-7.300003 29.300003,-14.199997l17.499985,-11.100006l-28.499985,63.199982l-173.300014,0z" class="st1"/>
 </g>
</svg>