<svg width="332" height="512" xmlns="http://www.w3.org/2000/svg">

 <g>
  <title>background</title>
  <rect fill="none" id="canvas_background" height="514" width="334" y="-1" x="-1"/>
 </g>
 <g>
  <title>Layer 1</title>
  <path fill="#ed764d" id="svg_1" d="m222.753998,255.5l96.325989,-150.808998c4.556,-7.178299 4.556,-15.987404 -0.100983,-23.142899s-13.161011,-11.548103 -22.424011,-11.548103l-259.165691,0c-9.212601,0 -17.767502,4.393303 -22.398501,11.548798s-4.682,15.963905 -0.0761,23.142204l96.301304,150.808998l-96.301304,150.80899c-4.6067,7.178009 -4.555599,15.987 0.0761,23.143005s13.185901,11.548004 22.398501,11.548004l259.165691,0c9.264008,0 17.768005,-4.393005 22.425018,-11.549011s4.656982,-15.963989 0.100983,-23.141998l-96.326996,-150.80899zm-81.697998,0l-103.666698,-162.3125l259.165691,0l-103.665985,162.3125l-51.833008,0z"/>
 </g>
</svg>